<svg width="22" height="25" viewBox="0 0 22 25" fill="none" xmlns="http://www.w3.org/2000/svg">
<g id="Group">
<path id="Vector" d="M18.6024 3.30818H17.8793V2.52323C17.8793 1.52927 17.0911 0.72139 16.1212 0.72139C15.1505 0.72139 14.363 1.52927 14.363 2.52323V3.30752H12.5587V2.52323C12.5587 1.52927 11.7705 0.72139 10.8006 0.72139C9.8306 0.72139 9.04239 1.52927 9.04239 2.52323V3.30752H7.23813V2.52323C7.23813 1.52927 6.44991 0.72139 5.47996 0.72139C4.51 0.72139 3.72179 1.52927 3.72179 2.52323V3.30752H2.79858C2.05662 3.30839 1.3453 3.60205 0.820649 4.12409C0.296001 4.64612 0.000871361 5.35391 0 6.09218V21.8173C0.000871361 22.5556 0.296001 23.2634 0.820649 23.7854C1.3453 24.3075 2.05662 24.6011 2.79858 24.602H18.6024C19.3443 24.6011 20.0556 24.3075 20.5803 23.7854C21.1049 23.2634 21.4001 22.5556 21.4009 21.8173V6.09218C21.3999 5.35402 21.1047 4.64641 20.5801 4.12451C20.0554 3.60261 19.3442 3.30904 18.6024 3.30818ZM15.3507 2.52323C15.3507 2.07179 15.6964 1.70421 16.1212 1.70421C16.5465 1.70421 16.8916 2.07179 16.8916 2.52323V5.73116C16.8916 6.1826 16.5465 6.55018 16.1212 6.55018C15.6964 6.55018 15.3507 6.1826 15.3507 5.73116V2.52323ZM10.0301 2.52323C10.0301 2.07179 10.3758 1.70421 10.8006 1.70421C11.2253 1.70421 11.571 2.07179 11.571 2.52323V5.73116C11.571 6.1826 11.2253 6.55018 10.8006 6.55018C10.3758 6.55018 10.0301 6.1826 10.0301 5.73116V2.52323ZM4.70887 2.52323C4.70887 2.07179 5.05457 1.70421 5.4793 1.70421C5.90403 1.70421 6.24973 2.07179 6.24973 2.52323V5.73116C6.24973 6.1826 5.90403 6.55018 5.4793 6.55018C5.05457 6.55018 4.70887 6.1826 4.70887 5.73116V2.52323ZM19.7547 21.818C19.7547 22.4503 19.2378 22.9646 18.6024 22.9646H2.79858C2.16314 22.9646 1.64623 22.4503 1.64623 21.818V7.40327H19.7547V21.818Z" fill="black"/>
<path id="Vector_2" d="M3.12781 10.3046H6.15357V12.9837H3.12781V10.3046ZM7.16633 10.3046H10.1928V12.9837H7.16633V10.3046ZM11.2081 10.3046H14.2339V12.9837H11.2081V10.3046ZM15.2467 10.3046H18.2731V12.9837H15.2467V10.3046ZM3.12781 13.8807H6.15357V16.5579H3.12781V13.8807ZM7.16633 13.8807H10.1928V16.5579H7.16633V13.8807ZM11.2081 13.8807H14.2339V16.5579H11.2081V13.8807ZM15.2467 13.8807H18.2731V16.5579H15.2467V13.8807ZM3.12781 17.4556H6.15357V20.1328H3.12781V17.4556ZM7.16633 17.4556H10.1928V20.1328H7.16633V17.4556ZM11.2081 17.4556H14.2339V20.1328H11.2081V17.4556ZM15.2467 17.4556H18.2731V20.1328H15.2467V17.4556Z" fill="black"/>
</g>
</svg>
