<svg width="20" height="21" viewBox="0 0 20 21" stroke-width="1" fill="none" xmlns="http://www.w3.org/2000/svg">
<g id="Group">
<path id="Vector" d="M3.20073 11.6159H14.0622C14.58 11.6159 14.9997 11.1246 14.9997 10.5185C14.9997 9.91248 14.58 9.42114 14.0622 9.42114H3.20073L4.41285 8.00229C4.77897 7.57372 4.77897 6.87893 4.41285 6.45036C4.04679 6.02179 3.45317 6.02179 3.08704 6.45036L0.274686 9.74246C0.252748 9.76814 0.231999 9.79506 0.212374 9.82315C0.203811 9.83537 0.196374 9.84832 0.188311 9.86083C0.177999 9.87692 0.167374 9.89265 0.157812 9.90941C0.149062 9.9247 0.141499 9.94057 0.133499 9.95623C0.125812 9.9713 0.117749 9.98601 0.110687 10.0015C0.103312 10.0176 0.0971244 10.0341 0.0904994 10.0505C0.0839995 10.0666 0.077187 10.0824 0.0713746 10.0987C0.0657496 10.1148 0.0611246 10.1311 0.0561871 10.1473C0.0507497 10.1649 0.0449997 10.1822 0.0403747 10.2001C0.0361873 10.2164 0.0331248 10.2328 0.0296248 10.2493C0.0256873 10.2675 0.0213124 10.2857 0.0181874 10.3042C0.0149999 10.3232 0.0130624 10.3424 0.0107499 10.3615C0.00874994 10.3778 0.00606246 10.3939 0.00468747 10.4104C0.00167857 10.4458 0.000135109 10.4814 6.24996e-05 10.517L0 10.5186L6.24996e-05 10.5202C0.000124999 10.5558 0.00168749 10.5914 0.00468747 10.6269C0.00606246 10.6432 0.00868745 10.6591 0.0106249 10.6752C0.0129999 10.6946 0.0149374 10.7139 0.0181874 10.733C0.0213124 10.7515 0.0256248 10.7693 0.0295623 10.7874C0.0331248 10.804 0.0362498 10.8208 0.0404997 10.8372C0.0450622 10.8548 0.0507497 10.8719 0.0559997 10.8892C0.0610621 10.9057 0.0656871 10.9223 0.0714371 10.9385C0.0771245 10.9546 0.083812 10.9701 0.0901869 10.9858C0.0969369 11.0026 0.103312 11.0195 0.110812 11.0359C0.117687 11.0509 0.125499 11.0652 0.132937 11.0797C0.141124 11.0959 0.148937 11.1122 0.157937 11.1279C0.167061 11.144 0.177249 11.159 0.187061 11.1744C0.195561 11.1876 0.203436 11.2013 0.212499 11.2142C0.231186 11.2408 0.250998 11.2664 0.271686 11.2909L0.274498 11.2945L3.08698 14.5868C3.17394 14.6888 3.27728 14.7698 3.39105 14.8249C3.50481 14.8801 3.62677 14.9084 3.74991 14.9082C3.87304 14.9084 3.99498 14.8801 4.10873 14.8249C4.22249 14.7698 4.32582 14.6889 4.41279 14.5868C4.77891 14.1583 4.77891 13.4635 4.41285 13.0349L3.20073 11.6159Z" fill="black"/>
<path id="Vector_2" d="M19.0624 0.641968H7.18749C6.66975 0.641968 6.25 1.13331 6.25 1.73936V6.12892C6.25 6.73497 6.66975 7.22631 7.18749 7.22631C7.70524 7.22631 8.12499 6.73497 8.12499 6.12892V2.83675H18.1249V18.2003H8.12499V14.908C8.12499 14.302 7.70524 13.8106 7.18749 13.8106C6.66975 13.8106 6.25 14.302 6.25 14.908V19.2977C6.25 19.9037 6.66975 20.3951 7.18749 20.3951H19.0624C19.5802 20.3951 19.9999 19.9037 19.9999 19.2977V1.73936C19.9999 1.13331 19.5802 0.641968 19.0624 0.641968Z" fill="black"/>
</g>
</svg>
