<svg width="30" height="30" viewBox="0 0 30 30" fill="none" xmlns="http://www.w3.org/2000/svg">
<g id="Group 8">
<circle id="Ellipse 3" cx="15" cy="15" r="14.5" stroke="#494949"/>
<path id="Vector" d="M15.2581 13.5V16.5H19.6875C19.1445 18.51 17.527 19.976 15.2333 19.976C12.3966 19.976 10.0968 17.748 10.0968 15C10.0968 12.252 12.3966 10.024 15.2333 10.024C16.7218 10.024 17.9234 10.647 18.7399 11.627L20.9561 9.48C19.5853 7.955 17.6075 7 15.2581 7C10.6975 7 7 10.582 7 15C7 19.418 10.6975 23 15.2581 23C19.8186 23 23 19.418 23 15V13.5H15.2581Z" fill="#494949"/>
</g>
</svg>
