<svg width="18" height="25" viewBox="0 0 18 25" fill="none" xmlns="http://www.w3.org/2000/svg">
<g id="Group">
<path id="Vector" d="M9 24.4378C6.8745 24.4378 0 14.602 0 9.56094C0 4.59676 4.03725 0.557213 9 0.557213C13.9628 0.557213 18 4.59676 18 9.56094C18 14.602 11.1255 24.4378 9 24.4378ZM9 2.04975C4.8645 2.04975 1.5 5.41915 1.5 9.56094C1.5 14.1042 7.5555 22.2229 9 22.9221C10.4445 22.2229 16.5 14.1042 16.5 9.56094C16.5 5.41915 13.1355 2.04975 9 2.04975ZM9 13.3535C6.93225 13.3535 5.25 11.6796 5.25 9.62214C5.25 7.56468 6.93225 5.89079 9 5.89079C11.0677 5.89079 12.75 7.56542 12.75 9.62214C12.75 11.6789 11.0677 13.3535 9 13.3535ZM9 7.38333C7.7595 7.38333 6.75 8.38781 6.75 9.62214C6.75 10.8565 7.7595 11.8609 9 11.8609C10.2405 11.8609 11.25 10.8572 11.25 9.62214C11.25 8.38706 10.2405 7.38333 9 7.38333Z" fill="black"/>
</g>
</svg>
