<svg width="26" height="30" viewBox="0 0 26 30" fill="none" xmlns="http://www.w3.org/2000/svg">
<g id="Group">
<path id="Vector" d="M13.4265 18.5625C13.618 18.5625 13.8095 18.4375 13.9371 18.3125C14.5754 17.4375 19.9367 9.6875 19.9367 6.4375C19.9367 2.875 17.0007 0 13.4265 0C9.85235 0 6.91641 2.875 6.91641 6.375C6.91641 9.6875 12.2777 17.4375 12.9159 18.25C13.0436 18.5 13.2351 18.5625 13.4265 18.5625ZM13.4265 1.25C16.2987 1.25 18.6602 3.5625 18.6602 6.375C18.6602 8.625 15.2136 14.0625 13.4265 16.8125C11.5756 14.125 8.19291 8.625 8.19291 6.375C8.19291 3.5625 10.5544 1.25 13.4265 1.25Z" fill="black"/>
<path id="Vector_2" d="M16.8731 6.3125C16.8731 4.4375 15.3413 2.9375 13.4265 2.9375C11.5118 2.9375 9.97999 4.4375 9.97999 6.3125C9.97999 8.1875 11.5118 9.6875 13.4265 9.6875C15.3413 9.6875 16.8731 8.1875 16.8731 6.3125ZM11.2565 6.3125C11.2565 5.125 12.2139 4.1875 13.4265 4.1875C14.6392 4.1875 15.5966 5.125 15.5966 6.3125C15.5966 7.5 14.6392 8.4375 13.4265 8.4375C12.2139 8.5 11.2565 7.5 11.2565 6.3125ZM4.04428 11.5625C2.19336 11.5625 0.789215 13.0625 0.789215 14.75V26.8125C0.789215 28.5625 2.25719 30 4.04428 30H22.8088C24.5959 29.9375 26 28.5625 26 26.8125V14.75C26 13 24.532 11.5625 22.7449 11.5625H19.6814C19.2984 11.5625 19.0431 11.8125 19.0431 12.1875C19.0431 12.5625 19.2984 12.8125 19.6814 12.8125H22.7449C23.7661 12.8125 24.5959 13.625 24.7235 14.5625L10.4268 21.6875C10.2991 21.75 10.1076 21.75 9.91616 21.75C9.72469 21.6875 9.59704 21.5625 9.53321 21.4375L5.1293 12.875H7.04404C7.42699 12.875 7.68229 12.625 7.68229 12.25C7.68229 11.875 7.42699 11.625 7.04404 11.625C6.98022 11.5625 3.98045 11.5625 4.04428 11.5625ZM2.06571 16.125L5.76755 23.25C5.95902 23.5625 5.83137 23.9375 5.51225 24.125L2.12954 25.8125V16.125H2.06571ZM5.6399 28.75L16.3625 23.4375C16.4901 23.375 16.6816 23.375 16.8731 23.375C17.0645 23.4375 17.1922 23.5625 17.256 23.6875L19.8728 28.75H5.6399ZM24.3406 28L21.1493 21.75C20.9578 21.4375 21.0855 21.0625 21.4046 20.875L24.7873 19.1875V26.6875C24.7873 27.25 24.5959 27.6875 24.3406 28ZM11.065 22.75L24.7873 15.9375V17.875L20.8302 19.8125C19.8728 20.25 19.4899 21.4375 20.0005 22.3125L23.2555 28.625C23.1279 28.625 23.0002 28.6875 22.8088 28.6875H21.3408L18.4687 23.0625C18.2134 22.625 17.8304 22.25 17.3837 22.125C16.8731 21.9375 16.3625 22 15.9157 22.25L3.21456 28.5625C2.70396 28.3125 2.32101 27.875 2.19336 27.3125V27.25L6.1505 25.3125C7.10787 24.875 7.49082 23.6875 6.98022 22.8125L2.32101 13.8125C2.64013 13.3125 3.15073 12.9375 3.72516 12.8125L8.44819 21.9375C8.95879 22.875 10.1076 23.25 11.065 22.75Z" fill="black"/>
</g>
</svg>
