<svg width="33" height="30" viewBox="0 0 33 30" fill="none" xmlns="http://www.w3.org/2000/svg">
<g id="Group">
<path id="Vector" d="M24.0679 5.92182L22.314 4.7482C22.2014 4.67469 22.0633 4.64709 21.9297 4.67135C21.7961 4.69562 21.6778 4.76982 21.6004 4.87784C21.523 4.98587 21.4928 5.11902 21.5163 5.24842C21.5398 5.37783 21.6152 5.49306 21.726 5.56912L23.4799 6.74274C23.7122 6.89816 24.0379 6.84069 24.1985 6.6165C24.2765 6.50764 24.3066 6.37329 24.2821 6.24302C24.2576 6.11275 24.1805 5.99721 24.0679 5.92182ZM27.5757 8.26894L25.8219 7.09538C25.7092 7.02002 25.5703 6.99098 25.4355 7.01465C25.3007 7.03832 25.1812 7.11277 25.1032 7.22161C25.0646 7.27551 25.0373 7.33622 25.023 7.4003C25.0086 7.46438 25.0075 7.53056 25.0196 7.59506C25.0317 7.65957 25.0569 7.72113 25.0936 7.77624C25.1303 7.83135 25.178 7.87892 25.2337 7.91624L26.9876 9.0898C27.211 9.2393 27.5431 9.1914 27.7063 8.96357C27.7843 8.85472 27.8143 8.72039 27.7898 8.59012C27.7654 8.45986 27.6883 8.34433 27.5757 8.26894ZM10.9844 7.73278L8.90772 7.26174C8.77548 7.23442 8.63742 7.2583 8.5232 7.32826C8.40897 7.39823 8.32768 7.50869 8.29678 7.63594C8.26588 7.76319 8.28784 7.89707 8.35793 8.00885C8.42803 8.12063 8.54068 8.20138 8.67169 8.23378L10.7484 8.70481C10.7881 8.71378 10.8277 8.71815 10.8669 8.71815C10.9833 8.71797 11.0963 8.67983 11.1874 8.60991C11.2786 8.53999 11.3427 8.44237 11.3693 8.33286C11.4344 8.06436 11.2621 7.79569 10.9844 7.73278ZM15.138 8.67486L13.0613 8.20382C12.9951 8.1884 12.9264 8.18579 12.8592 8.19613C12.7919 8.20646 12.7275 8.22955 12.6695 8.26405C12.6115 8.29855 12.5612 8.34379 12.5214 8.39717C12.4815 8.45054 12.453 8.511 12.4375 8.57506C12.4219 8.63913 12.4196 8.70553 12.4307 8.77046C12.4418 8.83538 12.4661 8.89755 12.5021 8.95337C12.5381 9.0092 12.5852 9.0576 12.6407 9.09577C12.6961 9.13394 12.7589 9.16114 12.8252 9.17579L14.902 9.64683C14.9417 9.6558 14.9813 9.66017 15.0205 9.66017C15.1471 9.65991 15.2692 9.61474 15.3636 9.53323C15.458 9.45173 15.5181 9.33956 15.5326 9.21801C15.5471 9.09647 15.5149 8.97402 15.4422 8.87389C15.3694 8.77377 15.2612 8.70294 15.138 8.67486ZM15.948 11.04L11.2425 9.9728C11.1763 9.95739 11.1076 9.95477 11.0404 9.96511C10.9731 9.97545 10.9087 9.99853 10.8507 10.033C10.7927 10.0675 10.7424 10.1128 10.7026 10.1661C10.6628 10.2195 10.6342 10.28 10.6187 10.344C10.6031 10.4081 10.6008 10.4745 10.6119 10.5394C10.623 10.6044 10.6473 10.6665 10.6833 10.7224C10.7194 10.7782 10.7665 10.8266 10.8219 10.8647C10.8774 10.9029 10.9401 10.9301 11.0065 10.9448V10.9448C13.3172 11.4689 14.7514 13.7832 14.1924 16.0857L12.7534 22.0131C12.2348 24.1494 10.0975 25.474 7.95353 24.9877V24.9877C5.76322 24.4909 4.40369 22.2972 4.93355 20.1146L6.97398 11.7099C7.18838 10.8268 8.07192 10.2792 8.95821 10.4802V10.4802C9.09103 10.509 9.23026 10.486 9.34563 10.4162C9.46099 10.3463 9.54315 10.2352 9.57424 10.1071C9.60533 9.97904 9.58284 9.84425 9.51166 9.7321C9.44047 9.61994 9.32635 9.53948 9.19411 9.50822L7.09364 9.03186C6.81659 8.96895 6.53812 9.13537 6.47284 9.40381L2.84618 24.3421C2.81489 24.471 2.83785 24.6066 2.91002 24.7191C2.98219 24.8317 3.09765 24.9119 3.231 24.9421L12.0852 26.9503C12.2185 26.9805 12.3589 26.9583 12.4753 26.8886C12.5917 26.8188 12.6748 26.7072 12.7061 26.5783L16.3328 11.6401C16.3641 11.5112 16.3411 11.3756 16.2689 11.263C16.1968 11.1505 16.0813 11.0703 15.948 11.04Z" fill="black"/>
<path id="Vector_2" d="M13.2984 16.672C13.2562 16.5748 13.1832 16.493 13.0899 16.4384C12.9966 16.3838 12.8878 16.3591 12.7791 16.368L12.7246 16.3724C11.6015 16.4634 10.5448 15.8302 10.0955 14.7968V14.7968C10.0532 14.6996 9.98021 14.6178 9.88691 14.5632C9.79361 14.5085 9.68481 14.4839 9.5761 14.4927C9.4674 14.5015 9.36438 14.5434 9.2818 14.6122C9.19923 14.6811 9.14134 14.7735 9.11644 14.8762V14.8762C8.85204 15.9653 7.919 16.762 6.80194 16.8526L6.74109 16.8575C6.63241 16.8663 6.52941 16.9082 6.44685 16.9771C6.36429 17.0459 6.3064 17.1383 6.28149 17.2409C6.25657 17.3435 6.2659 17.4511 6.30813 17.5483C6.35037 17.6455 6.42336 17.7273 6.51662 17.7819L6.55474 17.8042C7.51652 18.3673 7.9951 19.4946 7.73217 20.5776V20.5776C7.70726 20.6803 7.71661 20.7879 7.75886 20.8851C7.80112 20.9822 7.87412 21.064 7.96741 21.1186C8.06069 21.1732 8.16947 21.1979 8.27815 21.1891C8.38684 21.1803 8.48985 21.1385 8.57242 21.0696V21.0696C9.45325 20.3349 10.7091 20.2366 11.699 20.8162V20.8162C11.7923 20.8707 11.901 20.8954 12.0097 20.8865C12.1183 20.8777 12.2213 20.8358 12.3039 20.767C12.3864 20.6982 12.4443 20.6058 12.4693 20.5032C12.4942 20.4006 12.4849 20.2931 12.4427 20.1959V20.1959C11.9974 19.1717 12.2808 17.9765 13.1384 17.2611L13.1596 17.2435C13.2422 17.1746 13.3001 17.0822 13.3251 16.9796C13.35 16.8769 13.3407 16.7692 13.2984 16.672ZM10.594 18.5203V18.5203C10.6827 18.7242 10.459 18.9227 10.267 18.8103L10.2548 18.8031C10.045 18.6803 9.83481 18.7402 9.64038 18.8621C9.45126 18.9806 9.214 18.8448 9.26666 18.6279V18.6279C9.29158 18.5253 9.28224 18.4177 9.23998 18.3205C9.19772 18.2233 9.12472 18.1416 9.03143 18.0869V18.0869C8.84041 17.9751 8.91312 17.6833 9.13377 17.6654V17.6654C9.37335 17.646 9.50653 17.485 9.58994 17.2825C9.6763 17.0728 9.94929 17.0377 10.0397 17.2457V17.2457C10.0422 17.2514 10.0447 17.2569 10.0473 17.2623C10.2263 17.6377 10.4282 18.1389 10.594 18.5203V18.5203Z" fill="black"/>
<path id="Vector_3" d="M32.1068 7.31961C31.6666 7.0251 31.5176 6.45593 31.7601 5.99565C31.8168 5.88802 31.8312 5.76416 31.8006 5.64704C31.7701 5.52992 31.6966 5.42749 31.5938 5.35873L28.9522 3.59113C28.8494 3.52238 28.7244 3.49197 28.6002 3.50553C28.476 3.51908 28.3611 3.57569 28.2768 3.66486C28.0744 3.87912 27.7849 4.00201 27.4826 4.00201C27.2646 4.00216 27.0517 3.93767 26.8727 3.81723C26.4325 3.52272 26.2835 2.95355 26.526 2.49328C26.5827 2.38564 26.5971 2.26178 26.5665 2.14466C26.536 2.02755 26.4625 1.92512 26.3598 1.85636L23.7183 0.0887519C23.6155 0.0200092 23.4905 -0.0104011 23.3663 0.00315624C23.2421 0.0167135 23.1272 0.0733192 23.0429 0.162484C22.8405 0.376745 22.5509 0.499512 22.2487 0.499632C22.0306 0.499778 21.8177 0.435286 21.6387 0.314853C21.5261 0.239525 21.3872 0.210508 21.2524 0.23418C21.1176 0.257851 20.9981 0.332275 20.9201 0.441089L18.0354 4.46838C17.9784 4.54799 17.8692 4.56584 17.7737 4.54403V4.54403L14.6458 3.83469C14.5241 3.80711 14.3962 3.8231 14.2858 3.87969C14.1754 3.93629 14.09 4.02965 14.0453 4.14248C13.8566 4.61973 13.31 4.89786 12.7966 4.78137C12.2755 4.66315 11.921 4.18637 11.9722 3.67222C11.9842 3.55197 11.9506 3.43162 11.8778 3.33347C11.8049 3.23531 11.6977 3.166 11.5761 3.13839L8.44819 2.42899C8.32651 2.40142 8.19863 2.41742 8.08822 2.47401C7.97782 2.5306 7.89238 2.62396 7.84774 2.73678C7.65904 3.2135 7.11199 3.4921 6.59897 3.37573C6.32161 3.31276 6.04344 3.4793 5.97817 3.74768L5.20412 6.93594L0.665877 25.6291C0.63459 25.758 0.657557 25.8936 0.729725 26.0061C0.801894 26.1187 0.917353 26.1989 1.05071 26.2291C1.57189 26.3473 1.92628 26.8242 1.87512 27.3383C1.86317 27.4585 1.89672 27.5789 1.96955 27.677C2.04237 27.7752 2.14955 27.8445 2.2712 27.8721L5.39901 28.5815C5.52068 28.6091 5.64859 28.5932 5.75902 28.5366C5.86944 28.48 5.95487 28.3866 5.99946 28.2738C6.43434 27.1744 8.18883 27.5765 8.0727 28.744C8.06075 28.8642 8.09431 28.9846 8.16715 29.0827C8.23999 29.1809 8.34718 29.2502 8.46885 29.2778L11.5967 29.9872C11.8452 30.0433 12.1058 29.9101 12.1971 29.6794C12.3548 29.2806 12.7575 29.0127 13.1991 29.0127C13.4269 29.0127 13.6226 29.1067 13.836 28.9789C13.9524 28.9091 14.0354 28.7975 14.0668 28.6686L14.3324 27.5745C14.5332 26.7475 15.4956 26.3726 16.2028 26.8459V26.8459C16.4082 26.9833 16.7044 26.956 16.8783 26.7722C17.0806 26.5579 17.3702 26.4351 17.6724 26.4351C17.8908 26.4351 18.1017 26.4991 18.2824 26.6199C18.395 26.6952 18.534 26.7242 18.6688 26.7005C18.8035 26.6768 18.923 26.6024 19.001 26.4936L32.2374 8.01423C32.276 7.96034 32.3032 7.89962 32.3176 7.83555C32.3319 7.77147 32.333 7.70529 32.3209 7.64079C32.3088 7.57629 32.2837 7.51472 32.2469 7.45961C32.2102 7.40451 32.1626 7.35693 32.1068 7.31961ZM14.7342 21.5481C14.7054 21.6664 14.6772 21.7829 14.6485 21.9012L13.9132 24.9295L13.4186 26.967C13.2688 27.584 12.6766 27.9848 12.1261 28.3011V28.3011C11.6317 28.5852 11.0787 28.8443 10.5226 28.7182L10.286 28.6645C9.56986 28.5021 9.07815 27.8475 8.58496 27.3035C8.30354 26.993 7.92413 26.7627 7.48414 26.663C7.03396 26.5609 6.56773 26.6112 6.15702 26.7856C5.49727 27.0658 4.78746 27.4175 4.08846 27.2589L3.80652 27.195C3.25978 27.071 2.88318 26.5947 2.56954 26.13V26.13C2.22132 25.6141 1.8786 25.004 2.02546 24.3991L5.97048 8.14983C6.03797 7.87186 6.31605 7.69952 6.59501 7.76278V7.76278C6.63467 7.77175 6.67427 7.77611 6.71343 7.77611C6.84016 7.7761 6.96247 7.73106 7.05707 7.64955C7.15168 7.56804 7.21197 7.45575 7.22648 7.33407C7.24099 7.21238 7.2087 7.08978 7.13577 6.98961C7.06283 6.88943 6.95433 6.81868 6.83092 6.7908V6.7908C6.55449 6.7281 6.38292 6.45124 6.44979 6.1758L6.64169 5.38539C6.78231 4.80616 7.32481 4.43067 7.8518 4.15217C7.87123 4.1419 7.89049 4.13134 7.90958 4.12049C8.40537 3.83876 8.96597 3.57213 9.5221 3.69827L9.75867 3.75192C10.4748 3.91436 10.9666 4.56892 11.4598 5.11302C11.7412 5.42347 12.1205 5.65376 12.5605 5.75359C12.6037 5.76337 12.647 5.77175 12.6903 5.77876C14.1266 6.01076 15.7293 5.1062 17.1482 5.42798V5.42798C17.1549 5.42959 17.1698 5.55894 17.1728 5.57323C17.2042 5.72251 17.2527 5.86793 17.3175 6.00678C17.366 6.11051 17.4234 6.21026 17.4889 6.3048C17.8375 6.80832 18.1677 7.40614 18.0232 8.00127L17.8392 8.75894C17.7718 9.03691 17.4937 9.20925 17.2147 9.14599V9.14599C16.9376 9.08308 16.6592 9.24951 16.5939 9.51794C16.5784 9.58177 16.5761 9.64792 16.587 9.71261C16.598 9.77731 16.622 9.83929 16.6578 9.895C16.6935 9.95072 16.7403 9.99909 16.7954 10.0373C16.8504 10.0756 16.9128 10.103 16.9788 10.118V10.118C17.2552 10.1807 17.4268 10.4575 17.3599 10.733L16.6602 13.6153L16.5704 13.9851V13.9851C16.3939 14.7122 15.5407 18.226 15.3642 18.9531C15.1038 20.0254 14.8358 21.1295 14.7342 21.5481ZM30.0519 9.31143C29.8861 9.54298 29.5664 9.60107 29.3297 9.44266V9.44266C29.0953 9.28568 28.7734 9.34231 28.6111 9.56889C28.5724 9.62279 28.5452 9.68352 28.5308 9.7476C28.5165 9.81168 28.5154 9.87786 28.5275 9.94237C28.5397 10.0069 28.5648 10.0684 28.6016 10.1235C28.6383 10.1786 28.686 10.2262 28.7417 10.2635V10.2635C28.974 10.419 29.0316 10.7358 28.8688 10.963L18.8471 24.954C18.5881 25.3155 18.1168 25.4362 17.6721 25.4365V25.4365C17.5309 25.4366 17.3908 25.4504 17.2538 25.4771C16.7417 25.5773 16.1784 25.6152 15.7447 25.325L15.6055 25.2319C15.2414 24.9883 15.0681 24.5434 15.1715 24.1177V24.1177C15.3427 23.4123 16.1637 23.0925 16.767 23.4962L17.8085 24.1931C18.0405 24.3482 18.3665 24.291 18.5271 24.0668L25.169 14.7943C25.208 14.7404 25.2357 14.6796 25.2503 14.6153C25.265 14.5511 25.2664 14.4847 25.2544 14.4199C25.2424 14.3552 25.2173 14.2933 25.1805 14.238C25.1437 14.1826 25.0959 14.1349 25.04 14.0974C24.984 14.06 24.921 14.0336 24.8544 14.0198C24.7879 14.0059 24.7192 14.005 24.6522 14.0169C24.5853 14.0288 24.5215 14.0535 24.4644 14.0893C24.4073 14.1252 24.3582 14.1716 24.3197 14.2259L18.865 21.841C18.3671 22.5361 17.4075 22.7104 16.6969 22.235V22.235C16.1448 21.8655 15.882 21.1908 16.0387 20.5452L16.5869 18.2871C16.7102 17.7796 17.0847 17.3704 17.5794 17.2029V17.2029C18.1906 16.996 18.8658 17.1963 19.2653 17.7031L19.7741 18.3485C19.8402 18.4324 19.9321 18.4939 20.0366 18.5241C20.1411 18.5544 20.2528 18.5519 20.3557 18.5171C20.4587 18.4822 20.5475 18.4168 20.6096 18.3301C20.6717 18.2434 20.7038 18.14 20.7014 18.0346V18.0346C20.675 16.9199 21.3762 15.9175 22.4324 15.5599L22.4872 15.5413C22.5902 15.5065 22.6791 15.4411 22.7412 15.3544C22.8033 15.2677 22.8354 15.1642 22.8329 15.0588C22.8304 14.9534 22.7934 14.8515 22.7273 14.7677C22.6612 14.6838 22.5693 14.6223 22.4648 14.5921L22.4076 14.5755C21.336 14.2648 20.5895 13.2952 20.5632 12.1798V12.1798C20.5608 12.0743 20.5239 11.9724 20.4578 11.8884C20.3917 11.8045 20.2998 11.743 20.1953 11.7127C20.0908 11.6824 19.979 11.6849 19.876 11.7198C19.7731 11.7547 19.6842 11.8203 19.6222 11.907L18.7008 13.1935C18.5916 13.346 18.3981 13.413 18.218 13.3608V13.3608C17.9906 13.2949 17.8554 13.0616 17.9113 12.8316L19.097 7.94765C19.1261 7.82791 19.1779 7.71488 19.2496 7.61471V7.61471C19.5518 7.19282 20.1343 7.08698 20.5656 7.37558L25.1373 10.4348C25.8391 10.9044 26.013 11.8615 25.5214 12.548V12.548C25.4823 12.6018 25.4547 12.6627 25.44 12.7269C25.4253 12.7911 25.424 12.8575 25.4359 12.9223C25.4479 12.9871 25.473 13.0489 25.5098 13.1042C25.5466 13.1596 25.5944 13.2074 25.6503 13.2448C25.7063 13.2823 25.7693 13.3087 25.8359 13.3225C25.9024 13.3363 25.9712 13.3373 26.0381 13.3253C26.105 13.3134 26.1689 13.2888 26.2259 13.2529C26.283 13.2171 26.3321 13.1706 26.3706 13.1164L27.5633 11.4513C27.723 11.2282 27.6625 10.9104 27.4328 10.7566L19.9552 5.75293C19.723 5.59757 19.3969 5.65516 19.2365 5.87916L19.0234 6.17664C19.0167 6.18598 19.0052 6.18958 18.994 6.18701V6.18701C18.7385 6.12834 18.514 5.98158 18.3626 5.77428V5.77428C18.3606 5.77158 18.3608 5.76777 18.3628 5.76503L19.3557 4.37884C19.4626 4.22963 19.6967 4.21099 19.8492 4.31308V4.31308C19.9435 4.37619 20.0273 4.44095 20.1378 4.46705C20.3383 4.51445 20.5649 4.44455 20.6907 4.26901C20.7686 4.16016 20.7987 4.02583 20.7742 3.89557C20.7497 3.76531 20.6727 3.64978 20.5601 3.57439V3.57439C20.3278 3.41893 20.2703 3.10209 20.433 2.87486L21.0736 1.98058C21.3326 1.61901 21.8039 1.49836 22.2487 1.49798V1.49798C22.2906 1.49796 22.3324 1.49673 22.3741 1.49431C23.0733 1.45378 23.8394 1.38417 24.4215 1.77369V1.77369C25.0326 2.18263 25.2473 2.97699 25.5077 3.66467C25.6529 4.04818 25.9169 4.39202 26.2846 4.63803C26.6766 4.90043 27.1455 5.01844 27.6069 4.9928C28.3063 4.95394 29.0735 4.88656 29.6556 5.27609L29.9032 5.44179C30.3661 5.75157 30.5394 6.33466 30.6568 6.87915V6.87915C30.786 7.47824 30.8767 8.15977 30.5198 8.65802L30.0519 9.31143ZM19.6164 15.834C19.6216 16.0544 19.3307 16.1392 19.1945 15.9658V15.9658C19.1855 15.9544 19.1888 15.9584 19.1793 15.9473C19.0432 15.7899 18.8129 15.7274 18.6117 15.7957V15.7957C18.3977 15.8681 18.2466 15.6432 18.3484 15.4417C18.4447 15.251 18.4743 15.0523 18.3264 14.8645V14.8645C18.1893 14.6906 18.356 14.4431 18.5687 14.5048L18.5815 14.5085C18.8166 14.5766 19.0035 14.4701 19.1589 14.3069C19.314 14.1441 19.5782 14.2141 19.5835 14.4389V14.4389C19.589 14.6726 19.7483 14.811 19.9536 14.9037C20.1559 14.9951 20.1719 15.2673 19.9617 15.3385V15.3385C19.8587 15.3733 19.7698 15.4388 19.7077 15.5255C19.6456 15.6122 19.6135 15.7157 19.616 15.8211L19.6164 15.834Z" fill="black"/>
</g>
</svg>
