<svg width="240" height="200" viewBox="0 0 240 200" fill="none" xmlns="http://www.w3.org/2000/svg">
<g id="Group">
<path id="Vector" d="M64.4299 70.0967H88.7183V137.043C88.7183 143.835 94.6455 149.336 101.948 149.336H138.06C145.362 149.336 151.29 143.836 151.29 137.043V70.0967H175.57C179.592 70.0967 183.208 67.8464 184.755 64.3926C186.286 60.9529 185.434 56.9764 182.592 54.3358L127.025 2.69906C123.144 -0.899686 116.856 -0.899686 112.967 2.69906L57.409 54.3358C56.0191 55.6258 55.0724 57.27 54.6887 59.0603C54.305 60.8505 54.5017 62.7063 55.2538 64.3926C56.7995 67.8396 60.4075 70.0967 64.4299 70.0967Z" fill="#494949"/>
<path id="Vector_2" d="M228.066 95.1885C221.482 95.1885 216.141 100.152 216.141 106.276V152.637C216.141 166.526 203.973 177.824 189.025 177.824H50.9736C36.0258 177.824 23.8662 166.526 23.8662 152.637V106.276C23.8662 100.152 18.5167 95.1885 11.9331 95.1885C5.34164 95.1885 0 100.152 0 106.277V152.638C0 178.753 22.8663 200 50.9736 200H189.025C217.133 200 240 178.753 240 152.638V106.277C240 100.152 234.658 95.1885 228.066 95.1885Z" fill="#494949"/>
</g>
</svg>
